<mxfile host="app.diagrams.net" modified="2023-02-15T07:15:29.076Z" agent="5.0 (Windows NT 10.0; Win64; x64) AppleWebKit/537.36 (KHTML, like Gecko) Chrome/107.0.0.0 Safari/537.36 Edg/107.0.1418.62" etag="lkQgFe212FYIbPtlv2iN" version="20.8.20" type="github">
  <diagram id="prtHgNgQTEPvFCAcTncT" name="Page-1">
    <mxGraphModel dx="1386" dy="826" grid="1" gridSize="10" guides="1" tooltips="1" connect="1" arrows="1" fold="1" page="1" pageScale="1" pageWidth="1169" pageHeight="827" math="0" shadow="0">
      <root>
        <mxCell id="0" />
        <mxCell id="1" parent="0" />
        <mxCell id="sUfxY_BhJECdYHAKikT3-15" value="" style="shape=table;startSize=0;container=1;collapsible=0;childLayout=tableLayout;" vertex="1" parent="1">
          <mxGeometry x="120" y="80" width="802" height="490" as="geometry" />
        </mxCell>
        <mxCell id="sUfxY_BhJECdYHAKikT3-16" value="" style="shape=tableRow;horizontal=0;startSize=0;swimlaneHead=0;swimlaneBody=0;strokeColor=inherit;top=0;left=0;bottom=0;right=0;collapsible=0;dropTarget=0;fillColor=none;points=[[0,0.5],[1,0.5]];portConstraint=eastwest;" vertex="1" parent="sUfxY_BhJECdYHAKikT3-15">
          <mxGeometry width="802" height="163" as="geometry" />
        </mxCell>
        <mxCell id="sUfxY_BhJECdYHAKikT3-17" value="&lt;h2&gt;&lt;font style=&quot;font-size: 18px;&quot;&gt;缺陷权限流程图示&lt;/font&gt;&lt;/h2&gt;" style="shape=partialRectangle;html=1;whiteSpace=wrap;connectable=0;strokeColor=inherit;overflow=hidden;fillColor=none;top=0;left=0;bottom=0;right=0;pointerEvents=1;rowspan=3;colspan=1;spacingLeft=10;spacingRight=10;" vertex="1" parent="sUfxY_BhJECdYHAKikT3-16">
          <mxGeometry width="40" height="490" as="geometry">
            <mxRectangle width="40" height="163" as="alternateBounds" />
          </mxGeometry>
        </mxCell>
        <mxCell id="sUfxY_BhJECdYHAKikT3-18" value="&lt;h4&gt;质量小组&lt;/h4&gt;" style="shape=partialRectangle;html=1;whiteSpace=wrap;connectable=0;strokeColor=inherit;overflow=hidden;fillColor=none;top=0;left=0;bottom=0;right=0;pointerEvents=1;" vertex="1" parent="sUfxY_BhJECdYHAKikT3-16">
          <mxGeometry x="40" width="22" height="163" as="geometry">
            <mxRectangle width="22" height="163" as="alternateBounds" />
          </mxGeometry>
        </mxCell>
        <mxCell id="sUfxY_BhJECdYHAKikT3-19" value="" style="shape=partialRectangle;html=1;whiteSpace=wrap;connectable=0;strokeColor=inherit;overflow=hidden;fillColor=none;top=0;left=0;bottom=0;right=0;pointerEvents=1;" vertex="1" parent="sUfxY_BhJECdYHAKikT3-16">
          <mxGeometry x="62" width="740" height="163" as="geometry">
            <mxRectangle width="740" height="163" as="alternateBounds" />
          </mxGeometry>
        </mxCell>
        <mxCell id="sUfxY_BhJECdYHAKikT3-20" value="" style="shape=tableRow;horizontal=0;startSize=0;swimlaneHead=0;swimlaneBody=0;strokeColor=inherit;top=0;left=0;bottom=0;right=0;collapsible=0;dropTarget=0;fillColor=none;points=[[0,0.5],[1,0.5]];portConstraint=eastwest;" vertex="1" parent="sUfxY_BhJECdYHAKikT3-15">
          <mxGeometry y="163" width="802" height="164" as="geometry" />
        </mxCell>
        <mxCell id="sUfxY_BhJECdYHAKikT3-21" value="" style="shape=partialRectangle;html=1;whiteSpace=wrap;connectable=0;strokeColor=inherit;overflow=hidden;fillColor=none;top=0;left=0;bottom=0;right=0;pointerEvents=1;" vertex="1" visible="0" parent="sUfxY_BhJECdYHAKikT3-20">
          <mxGeometry width="40" height="164" as="geometry">
            <mxRectangle width="40" height="164" as="alternateBounds" />
          </mxGeometry>
        </mxCell>
        <mxCell id="sUfxY_BhJECdYHAKikT3-22" value="&lt;h4&gt;研发部&lt;/h4&gt;" style="shape=partialRectangle;html=1;whiteSpace=wrap;connectable=0;strokeColor=inherit;overflow=hidden;fillColor=none;top=0;left=0;bottom=0;right=0;pointerEvents=1;" vertex="1" parent="sUfxY_BhJECdYHAKikT3-20">
          <mxGeometry x="40" width="22" height="164" as="geometry">
            <mxRectangle width="22" height="164" as="alternateBounds" />
          </mxGeometry>
        </mxCell>
        <mxCell id="sUfxY_BhJECdYHAKikT3-23" value="" style="shape=partialRectangle;html=1;whiteSpace=wrap;connectable=0;strokeColor=inherit;overflow=hidden;fillColor=none;top=0;left=0;bottom=0;right=0;pointerEvents=1;" vertex="1" parent="sUfxY_BhJECdYHAKikT3-20">
          <mxGeometry x="62" width="740" height="164" as="geometry">
            <mxRectangle width="740" height="164" as="alternateBounds" />
          </mxGeometry>
        </mxCell>
        <mxCell id="sUfxY_BhJECdYHAKikT3-24" value="" style="shape=tableRow;horizontal=0;startSize=0;swimlaneHead=0;swimlaneBody=0;strokeColor=inherit;top=0;left=0;bottom=0;right=0;collapsible=0;dropTarget=0;fillColor=none;points=[[0,0.5],[1,0.5]];portConstraint=eastwest;" vertex="1" parent="sUfxY_BhJECdYHAKikT3-15">
          <mxGeometry y="327" width="802" height="163" as="geometry" />
        </mxCell>
        <mxCell id="sUfxY_BhJECdYHAKikT3-25" value="" style="shape=partialRectangle;html=1;whiteSpace=wrap;connectable=0;strokeColor=inherit;overflow=hidden;fillColor=none;top=0;left=0;bottom=0;right=0;pointerEvents=1;" vertex="1" visible="0" parent="sUfxY_BhJECdYHAKikT3-24">
          <mxGeometry width="40" height="163" as="geometry">
            <mxRectangle width="40" height="163" as="alternateBounds" />
          </mxGeometry>
        </mxCell>
        <mxCell id="sUfxY_BhJECdYHAKikT3-26" value="&lt;h4&gt;产品部&lt;/h4&gt;" style="shape=partialRectangle;html=1;whiteSpace=wrap;connectable=0;strokeColor=inherit;overflow=hidden;fillColor=none;top=0;left=0;bottom=0;right=0;pointerEvents=1;" vertex="1" parent="sUfxY_BhJECdYHAKikT3-24">
          <mxGeometry x="40" width="22" height="163" as="geometry">
            <mxRectangle width="22" height="163" as="alternateBounds" />
          </mxGeometry>
        </mxCell>
        <mxCell id="sUfxY_BhJECdYHAKikT3-27" value="" style="shape=partialRectangle;html=1;whiteSpace=wrap;connectable=0;strokeColor=inherit;overflow=hidden;fillColor=none;top=0;left=0;bottom=0;right=0;pointerEvents=1;" vertex="1" parent="sUfxY_BhJECdYHAKikT3-24">
          <mxGeometry x="62" width="740" height="163" as="geometry">
            <mxRectangle width="740" height="163" as="alternateBounds" />
          </mxGeometry>
        </mxCell>
      </root>
    </mxGraphModel>
  </diagram>
</mxfile>
